<svg width="1440" height="1024" viewBox="0 0 1440 1024" fill="none" xmlns="http://www.w3.org/2000/svg">
<path d="M399.889 20.2634C651.909 84.8938 396.374 261.495 571.017 432.019C731.067 588.296 1077.61 387.905 1063.46 770.861C1053.77 1033.05 1122.4 1145.68 1324.4 1244.95" stroke="#D2F7ED"/>
<path d="M413.415 8.91386C665.435 73.5442 409.9 250.145 584.543 420.67C744.593 576.946 1091.14 376.555 1076.99 759.511C1067.3 1021.7 1135.92 1134.33 1337.93 1233.6" stroke="#D2F7ED"/>
<path d="M426.94 -2.43607C678.961 62.1943 423.426 238.795 598.068 409.32C758.118 565.596 1104.66 365.205 1090.51 748.161C1080.82 1010.35 1149.45 1122.98 1351.45 1222.25" stroke="#D2F7ED"/>
<path d="M440.467 -13.7856C692.487 50.8448 436.952 227.446 611.594 397.97C771.645 554.247 1118.19 353.856 1104.04 736.812C1094.35 999.001 1162.98 1111.63 1364.98 1210.9" stroke="#D2F7ED"/>
<path d="M453.993 -25.1351C706.013 39.4952 450.478 216.096 625.12 386.621C785.171 542.897 1131.71 342.506 1117.56 725.462C1107.87 987.651 1176.5 1100.28 1378.51 1199.56" stroke="#D2F7ED"/>
<path d="M467.518 -36.4847C719.538 28.1457 464.004 204.746 638.646 375.271C798.696 531.547 1145.24 331.156 1131.09 714.113C1121.4 976.302 1190.03 1088.93 1392.03 1188.21" stroke="#D2F7ED"/>
<path d="M481.044 -47.8342C733.064 16.7962 477.53 193.397 652.172 363.922C812.222 520.198 1158.77 319.807 1144.62 702.763C1134.93 964.952 1203.55 1077.58 1405.56 1176.86" stroke="#D2F7ED"/>
<path d="M494.57 -59.1841C746.59 5.44625 491.055 182.047 665.698 352.572C825.748 508.848 1172.29 308.457 1158.14 691.413C1148.45 953.602 1217.08 1066.23 1419.08 1165.51" stroke="#D2F7ED"/>
<path d="M508.096 -70.5337C760.116 -5.9033 504.581 170.697 679.224 341.222C839.274 497.498 1185.82 297.107 1171.67 680.064C1161.98 942.253 1230.61 1054.88 1432.61 1154.16" stroke="#D2F7ED"/>
<path d="M521.622 -81.8832C773.642 -17.2528 518.107 159.348 692.75 329.873C852.8 486.149 1199.34 285.758 1185.19 668.714C1175.5 930.903 1244.13 1043.53 1446.14 1142.81" stroke="#D2F7ED"/>
<path d="M535.148 -93.2327C787.168 -28.6023 531.633 147.998 706.276 318.523C866.326 474.799 1212.87 274.408 1198.72 657.365C1189.03 919.554 1257.66 1032.18 1459.66 1131.46" stroke="#D2F7ED"/>
<path d="M548.674 -104.582C800.694 -39.9519 545.159 136.649 719.802 307.174C879.852 463.45 1226.4 263.059 1212.24 646.015C1202.56 908.204 1271.18 1020.83 1473.19 1120.11" stroke="#D2F7ED"/>
<path d="M562.2 -115.932C814.22 -51.3018 558.685 125.299 733.328 295.824C893.378 452.1 1239.92 251.709 1225.77 634.665C1216.08 896.854 1284.71 1009.48 1486.71 1108.76" stroke="#D2F7ED"/>
<path d="M575.726 -127.282C827.746 -62.6513 572.211 113.949 746.854 284.474C906.904 440.75 1253.45 240.359 1239.3 623.316C1229.61 885.505 1298.23 998.131 1500.24 1097.41" stroke="#D2F7ED"/>
<path d="M589.252 -138.631C841.272 -74.0009 585.737 102.6 760.38 273.125C920.43 429.401 1266.97 229.01 1252.82 611.966C1243.13 874.155 1311.76 986.781 1513.77 1086.06" stroke="#D2F7ED"/>
<path d="M602.778 -149.981C854.798 -85.3504 599.263 91.2503 773.906 261.775C933.956 418.051 1280.5 217.66 1266.35 600.616C1256.66 862.806 1325.29 975.432 1527.29 1074.71" stroke="#D2F7ED"/>
<path d="M616.304 -161.33C868.324 -96.6999 612.789 79.9008 787.432 250.426C947.482 406.702 1294.03 206.311 1279.87 589.267C1270.19 851.456 1338.81 964.082 1540.82 1063.36" stroke="#D2F7ED"/>
<path d="M629.83 -172.68C881.85 -108.049 626.315 68.5513 800.958 239.076C961.008 395.352 1307.55 194.961 1293.4 577.917C1283.71 840.107 1352.34 952.733 1554.34 1052.01" stroke="#D2F7ED"/>
<path d="M643.355 -184.03C895.376 -119.399 639.841 57.2013 814.483 227.726C974.533 384.002 1321.08 183.611 1306.93 566.567C1297.24 828.757 1365.86 941.383 1567.87 1040.66" stroke="#D2F7ED"/>
<path d="M656.882 -195.379C908.902 -130.749 653.367 45.8518 828.009 216.377C988.059 372.653 1334.6 172.262 1320.45 555.218C1310.76 817.407 1379.39 930.033 1581.4 1029.31" stroke="#D2F7ED"/>
</svg>
